<svg id="customer-review" xmlns="http://www.w3.org/2000/svg" width="93.973" height="93.973" viewBox="0 0 93.973 93.973">
  <circle id="Ellipse_13" data-name="Ellipse 13" cx="44.967" cy="44.967" r="44.967" transform="translate(1.659 4.038)" fill="#5dc1d8"/>
  <path id="Path_210" data-name="Path 210" d="M386.506,191.8H360.337a.92.92,0,0,0-.918.918V205.68a5.111,5.111,0,0,1,1.172,7.569h7.066a.92.92,0,0,1,.918.918v5.112c0,.5.288.622.64.26l5.474-5.631a2.5,2.5,0,0,1,1.557-.658h10.261a.92.92,0,0,0,.918-.918V192.723A.92.92,0,0,0,386.506,191.8Z" transform="translate(-293.451 -156.601)" fill="#f87eab"/>
  <path id="Path_211" data-name="Path 211" d="M363.061,212.331V192.723a.92.92,0,0,1,.918-.918h-3.642a.92.92,0,0,0-.918.918V205.68a5.111,5.111,0,0,1,1.172,7.569h3.388A.92.92,0,0,1,363.061,212.331Z" transform="translate(-293.451 -156.601)" fill="#e26693"/>
  <path id="Path_212" data-name="Path 212" d="M386.127,231.065a14.571,14.571,0,0,1-11.047-5.071.411.411,0,0,1,0-.536,14.567,14.567,0,0,1,22.093,0,.41.41,0,0,1,0,.536A14.57,14.57,0,0,1,386.127,231.065Z" transform="translate(-306.156 -179.937)" fill="#fff"/>
  <path id="Path_213" data-name="Path 213" d="M377.741,225.994a.411.411,0,0,1,0-.536,14.574,14.574,0,0,1,9.714-5.009c-.44-.041-.883-.062-1.328-.062a14.571,14.571,0,0,0-11.047,5.071.411.411,0,0,0,0,.536,14.571,14.571,0,0,0,11.047,5.071c.446,0,.889-.022,1.328-.062A14.575,14.575,0,0,1,377.741,225.994Z" transform="translate(-306.156 -179.937)" fill="#d9eafc"/>
  <path id="Path_214" data-name="Path 214" d="M421.074,230.6a4.244,4.244,0,1,1-4.243-4.243A4.244,4.244,0,0,1,421.074,230.6Z" transform="translate(-336.861 -184.81)" fill="#aec1ed"/>
  <path id="Path_215" data-name="Path 215" d="M423.821,234.914a2.668,2.668,0,0,0-2.279,4.063,1,1,0,1,1,1.532,1.174,2.672,2.672,0,1,0,.748-5.237Z" transform="translate(-343.85 -191.798)" fill="#1a2b63"/>
  <path id="Path_216" data-name="Path 216" d="M424.853,254.739a1,1,0,1,1-1-1A1,1,0,0,1,424.853,254.739Z" transform="translate(-345.247 -207.17)" fill="#fff"/>
  <path id="Path_217" data-name="Path 217" d="M46.708,139.439A11.294,11.294,0,0,1,51.7,130.07v-3.2a.92.92,0,0,0-.918-.918H20.76a.92.92,0,0,0-.918.918v19.608a.92.92,0,0,0,.918.918H32.685a2.763,2.763,0,0,1,1.6.616l6.321,5.716c.374.339.681.2.681-.3v-5.112a.92.92,0,0,1,.918-.918h4.5v-7.954Z" transform="translate(-16.2 -102.833)" fill="#445ea0"/>
  <path id="Path_218" data-name="Path 218" d="M105.039.918A.92.92,0,0,1,105.957,0h30.483a.92.92,0,0,1,.918.918V19.051a.92.92,0,0,1-.918.918h-8.73a.92.92,0,0,0-.918.918v3.2c0,.5-.347.693-.771.419l-6.252-4.041a3.669,3.669,0,0,0-1.688-.5H105.957a.92.92,0,0,1-.918-.918V.918Z" transform="translate(-85.76)" fill="#fe3745"/>
  <path id="Path_219" data-name="Path 219" d="M108.681,19.051V.918A.92.92,0,0,1,109.6,0h-3.642a.92.92,0,0,0-.918.918V19.051a.92.92,0,0,0,.918.918H109.6A.92.92,0,0,1,108.681,19.051Z" transform="translate(-85.76)" fill="#b7092b"/>
  <g id="Group_89" data-name="Group 89" transform="translate(21.982 4.659)">
    <path id="Path_220" data-name="Path 220" d="M124.272,26.206c.234-.474.617-.474.851,0l.818,1.656a2.053,2.053,0,0,0,1.376,1l1.828.266c.523.076.641.44.263.809l-1.323,1.289a2.053,2.053,0,0,0-.526,1.618l.312,1.821c.09.521-.22.746-.688.5l-1.635-.86a2.054,2.054,0,0,0-1.7,0l-1.635.86c-.468.246-.778.021-.688-.5l.312-1.821a2.055,2.055,0,0,0-.526-1.618l-1.323-1.289c-.379-.369-.26-.733.263-.809l1.828-.266a2.052,2.052,0,0,0,1.377-1Z" transform="translate(-119.765 -25.765)" fill="#ffaf10"/>
    <path id="Path_221" data-name="Path 221" d="M195.251,28.137H182.969a1.377,1.377,0,1,1,0-2.753h12.283a1.377,1.377,0,1,1,0,2.753Z" transform="translate(-170.244 -25.384)" fill="#ffaf10"/>
    <path id="Path_222" data-name="Path 222" d="M195.251,48.108H182.969a1.377,1.377,0,1,1,0-2.753h12.283a1.377,1.377,0,1,1,0,2.753Z" transform="translate(-170.244 -41.69)" fill="#ffaf10"/>
    <path id="Path_223" data-name="Path 223" d="M189.134,68.078h-6.165a1.377,1.377,0,1,1,0-2.753h6.165a1.377,1.377,0,0,1,0,2.753Z" transform="translate(-170.244 -57.994)" fill="#ffaf10"/>
  </g>
  <path id="Path_224" data-name="Path 224" d="M156.592,397.3H146.165l.277,1a1.385,1.385,0,0,1-.394,1.286l-5.687,4.858a.792.792,0,0,1-1.071-.056l-3.713-3.916a1.043,1.043,0,0,0-1.523,0l-3.713,3.916a.792.792,0,0,1-1.071.056l-5.687-4.858a1.388,1.388,0,0,1-.394-1.286l.277-1H113.039a5.031,5.031,0,0,0-5.025,5.025v7.169a44.974,44.974,0,0,0,53.6,0v-7.169A5.031,5.031,0,0,0,156.592,397.3Z" transform="translate(-88.189 -324.376)" fill="#293d7c"/>
  <path id="Path_225" data-name="Path 225" d="M111.656,402.321a5.031,5.031,0,0,1,5.025-5.025h-3.642a5.031,5.031,0,0,0-5.025,5.025v7.169q1.757,1.306,3.642,2.442v-9.611Z" transform="translate(-88.189 -324.376)" fill="#1a2b63"/>
  <path id="Path_226" data-name="Path 226" d="M246.42,441.447a1.715,1.715,0,1,1,1.211-.5A1.721,1.721,0,0,1,246.42,441.447Z" transform="translate(-199.793 -357.626)" fill="#fff"/>
  <path id="Path_227" data-name="Path 227" d="M246.5,440.944a1.71,1.71,0,0,1,0-2.422,1.7,1.7,0,0,1,.562-.374,1.713,1.713,0,1,0,0,3.169A1.7,1.7,0,0,1,246.5,440.944Z" transform="translate(-199.793 -357.626)" fill="#d9eafc"/>
  <path id="Path_228" data-name="Path 228" d="M246.42,479.182a1.716,1.716,0,1,1,1.211-.5A1.718,1.718,0,0,1,246.42,479.182Z" transform="translate(-199.793 -388.436)" fill="#fff"/>
  <path id="Path_229" data-name="Path 229" d="M246.5,478.679a1.71,1.71,0,0,1,0-2.422,1.7,1.7,0,0,1,.562-.374,1.713,1.713,0,1,0,0,3.169A1.7,1.7,0,0,1,246.5,478.679Z" transform="translate(-199.793 -388.435)" fill="#d9eafc"/>
  <path id="Path_230" data-name="Path 230" d="M211.494,369.712a16.034,16.034,0,0,1-20.281,0l-1.663,6.016A1.57,1.57,0,0,0,190,377.2l5.687,4.858a.976.976,0,0,0,1.324-.07l3.713-3.916a.859.859,0,0,1,1.257,0l3.713,3.916a.975.975,0,0,0,1.324.07l5.687-4.858a1.569,1.569,0,0,0,.451-1.474Z" transform="translate(-154.727 -301.855)" fill="#fff"/>
  <path id="Path_231" data-name="Path 231" d="M193.644,377.2a1.57,1.57,0,0,1-.451-1.474l1.115-4.036a16.137,16.137,0,0,1-3.095-1.98l-1.663,6.016A1.57,1.57,0,0,0,190,377.2l5.687,4.858a.975.975,0,0,0,1.324-.07l1-1.056Z" transform="translate(-154.727 -301.856)" fill="#d9eafc"/>
  <path id="Path_232" data-name="Path 232" d="M278.8,157.153a8.924,8.924,0,0,0-3.436.684,11.24,11.24,0,0,1,2.037,3.839c6.061,1.118,10.352,4.318,10.352,11.222V166.1A8.952,8.952,0,0,0,278.8,157.153Z" transform="translate(-224.826 -128.309)" fill="#ff9518"/>
  <path id="Path_233" data-name="Path 233" d="M181.521,144.654a32.58,32.58,0,0,1,6.2.535,11.478,11.478,0,0,0-22.5,3.19v7.983C165.219,147.36,172.518,144.654,181.521,144.654Z" transform="translate(-134.895 -111.774)" fill="#ffaf10"/>
  <path id="Path_234" data-name="Path 234" d="M168.459,148.267a11.478,11.478,0,0,1,9.863-11.251,11.482,11.482,0,0,0-13.1,11.364v7.983C165.219,152.705,166.424,150.087,168.459,148.267Z" transform="translate(-134.895 -111.774)" fill="#ff9518"/>
  <path id="Path_235" data-name="Path 235" d="M140.653,269.269v-7.318h-.5a5.3,5.3,0,1,0,0,10.606h.838A16.086,16.086,0,0,1,140.653,269.269Z" transform="translate(-110.1 -213.872)" fill="#ffdd8d"/>
  <path id="Path_236" data-name="Path 236" d="M136.793,267.254a5.305,5.305,0,0,1,3.86-5.1v-.2h-.5a5.3,5.3,0,1,0,0,10.606h.838c-.008-.04-.014-.081-.022-.121A5.3,5.3,0,0,1,136.793,267.254Z" transform="translate(-110.1 -213.872)" fill="#ff9f60"/>
  <path id="Path_237" data-name="Path 237" d="M340.607,261.951h-.5v7.318a16.087,16.087,0,0,1-.34,3.289h.838a5.3,5.3,0,1,0,0-10.606Z" transform="translate(-277.408 -213.872)" fill="#ffc987"/>
  <path id="Path_238" data-name="Path 238" d="M197.824,200.845a16.3,16.3,0,0,1-16.3,16.3h0a16.3,16.3,0,0,1-16.3-16.3V189.854c0-9,7.3-11.709,16.3-11.709h0c9,0,16.3,2.706,16.3,11.709Z" transform="translate(-134.895 -145.448)" fill="#ffe2b8"/>
  <path id="Path_239" data-name="Path 239" d="M168.456,200.845V189.854c0-8.457,6.44-11.357,14.684-11.678q-.8-.031-1.618-.031c-9,0-16.3,2.706-16.3,11.709v10.991a16.3,16.3,0,0,0,16.3,16.3c.546,0,1.086-.028,1.618-.081A16.3,16.3,0,0,1,168.456,200.845Z" transform="translate(-134.895 -145.448)" fill="#ffc987"/>
  <path id="Path_243" data-name="Path 243" d="M231.5,320.365h-9.371A1.434,1.434,0,0,0,220.7,321.8a6.12,6.12,0,1,0,12.24,0A1.434,1.434,0,0,0,231.5,320.365Z" transform="translate(-180.19 -261.565)" fill="#fff"/>
  <path id="Path_244" data-name="Path 244" d="M350.274,39.918a.92.92,0,0,0-.918-.918H314.836a.92.92,0,0,0-.918.918V58.789a.92.92,0,0,0,.918.918h10.05a.92.92,0,0,1,.918.918v3.389c0,.5.355.706.788.448l7.19-4.285a3.944,3.944,0,0,1,1.706-.47h13.868a.92.92,0,0,0,.918-.918Z" transform="translate(-256.301 -31.842)" fill="#ff9518"/>
  <path id="Path_245" data-name="Path 245" d="M3.642,146.476V126.868a.92.92,0,0,1,.918-.918H.918a.92.92,0,0,0-.918.918v19.608a.92.92,0,0,0,.918.918H4.56A.92.92,0,0,1,3.642,146.476Z" transform="translate(0 -102.833)" fill="#293d7c"/>
  <path id="Path_246" data-name="Path 246" d="M317.56,58.789V39.918a.92.92,0,0,1,.918-.918h-3.642a.92.92,0,0,0-.918.918V58.789a.92.92,0,0,0,.918.918h3.642A.92.92,0,0,1,317.56,58.789Z" transform="translate(-256.301 -31.842)" fill="#ef8318"/>
  <g id="Group_91" data-name="Group 91" transform="translate(61.063 12.199)">
    <path id="Path_247" data-name="Path 247" d="M336.986,66.8c.223-.451.587-.451.81,0l.778,1.577a1.955,1.955,0,0,0,1.31.952l1.74.253c.5.072.611.419.25.77l-1.259,1.228a1.955,1.955,0,0,0-.5,1.54l.3,1.733c.085.5-.21.71-.655.476l-1.556-.818a1.956,1.956,0,0,0-1.62,0l-1.556.818c-.445.234-.741.02-.655-.476l.3-1.733a1.956,1.956,0,0,0-.5-1.54l-1.259-1.228c-.36-.351-.248-.7.25-.77l1.74-.253a1.954,1.954,0,0,0,1.31-.952Z" transform="translate(-332.696 -66.465)" fill="#fff"/>
    <path id="Path_248" data-name="Path 248" d="M396.959,66.8c.223-.451.587-.451.81,0l.778,1.577a1.955,1.955,0,0,0,1.31.952l1.74.253c.5.072.611.419.25.77l-1.259,1.228a1.956,1.956,0,0,0-.5,1.54l.3,1.733c.085.5-.21.71-.655.476l-1.556-.818a1.956,1.956,0,0,0-1.62,0L395,75.332c-.446.234-.741.02-.655-.476l.3-1.733a1.957,1.957,0,0,0-.5-1.54l-1.259-1.228c-.36-.351-.248-.7.25-.77l1.74-.253a1.955,1.955,0,0,0,1.31-.952Z" transform="translate(-381.661 -66.465)" fill="#fff"/>
    <path id="Path_249" data-name="Path 249" d="M456.929,66.8c.223-.451.587-.451.81,0l.778,1.577a1.955,1.955,0,0,0,1.31.952l1.74.253c.5.072.611.419.25.77l-1.259,1.228a1.956,1.956,0,0,0-.5,1.54l.3,1.733c.085.5-.21.71-.655.476l-1.557-.818a1.956,1.956,0,0,0-1.62,0l-1.556.818c-.446.234-.741.02-.655-.476l.3-1.733a1.956,1.956,0,0,0-.5-1.54l-1.259-1.228c-.36-.351-.248-.7.25-.77l1.74-.253a1.955,1.955,0,0,0,1.31-.952Z" transform="translate(-430.624 -66.465)" fill="#fff"/>
  </g>
  <g id="Group_92" data-name="Group 92" transform="translate(5.476 27.568)">
    <path id="Path_250" data-name="Path 250" d="M49.277,152.957H31.211a1.377,1.377,0,1,1,0-2.753H49.277a1.377,1.377,0,1,1,0,2.753Z" transform="translate(-29.834 -150.204)" fill="#91e0e8"/>
    <path id="Path_251" data-name="Path 251" d="M49.277,177.608H31.211a1.377,1.377,0,0,1,0-2.753H49.277a1.377,1.377,0,0,1,0,2.753Z" transform="translate(-29.834 -170.331)" fill="#91e0e8"/>
    <path id="Path_252" data-name="Path 252" d="M40.279,202.258H31.211a1.377,1.377,0,0,1,0-2.753h9.069a1.377,1.377,0,0,1,0,2.753Z" transform="translate(-29.834 -190.456)" fill="#91e0e8"/>
  </g>
</svg>
