<svg xmlns="http://www.w3.org/2000/svg" width="66.873" height="71" viewBox="0 0 66.873 71">
  <g id="experience" transform="translate(-14.88)">
    <g id="Group_87" data-name="Group 87" transform="translate(14.88 0)">
      <path id="Path_177" data-name="Path 177" d="M63.574,71H18.923a4.043,4.043,0,0,1-4.043-4.043V4.043A4.043,4.043,0,0,1,18.923,0H63.574a4.043,4.043,0,0,1,4.043,4.043V66.957A4.043,4.043,0,0,1,63.574,71Z" transform="translate(-14.88 0)" fill="#ffe8d2"/>
      <path id="Path_178" data-name="Path 178" d="M63.573,0H59.844V18.389a44.209,44.209,0,0,1-44.219,44.2H14.88v4.369A4.043,4.043,0,0,0,18.924,71H63.573a4.043,4.043,0,0,0,4.044-4.042V4.042A4.043,4.043,0,0,0,63.573,0Z" transform="translate(-14.88 0)" fill="#f7d4ad"/>
      <g id="Group_77" data-name="Group 77" transform="translate(8.405 46.911)">
        <path id="Path_179" data-name="Path 179" d="M114,340.439H76.569a1.075,1.075,0,1,1,0-2.151H114a1.075,1.075,0,1,1,0,2.151Z" transform="translate(-75.493 -338.288)" fill="#e2a876"/>
      </g>
      <g id="Group_78" data-name="Group 78" transform="translate(8.405 52.688)">
        <path id="Path_180" data-name="Path 180" d="M114,382.1H76.569a1.075,1.075,0,1,1,0-2.151H114a1.075,1.075,0,1,1,0,2.151Z" transform="translate(-75.493 -379.948)" fill="#e2a876"/>
      </g>
      <g id="Group_79" data-name="Group 79" transform="translate(8.405 58.465)">
        <path id="Path_181" data-name="Path 181" d="M114,423.76H76.569a1.075,1.075,0,1,1,0-2.151H114a1.075,1.075,0,1,1,0,2.151Z" transform="translate(-75.493 -421.609)" fill="#e2a876"/>
      </g>
      <g id="Group_80" data-name="Group 80" transform="translate(8.405 64.242)">
        <path id="Path_182" data-name="Path 182" d="M114,465.421H76.569a1.075,1.075,0,1,1,0-2.151H114a1.075,1.075,0,1,1,0,2.151Z" transform="translate(-75.493 -463.27)" fill="#e2a876"/>
      </g>
      <g id="Group_81" data-name="Group 81" transform="translate(8.405 35.357)">
        <path id="Path_183" data-name="Path 183" d="M114,257.117H76.569a1.075,1.075,0,1,1,0-2.151H114a1.075,1.075,0,1,1,0,2.151Z" transform="translate(-75.493 -254.966)" fill="#e2a876"/>
      </g>
      <g id="Group_82" data-name="Group 82" transform="translate(8.405 41.134)">
        <path id="Path_184" data-name="Path 184" d="M114,298.777H76.569a1.075,1.075,0,1,1,0-2.151H114a1.075,1.075,0,1,1,0,2.151Z" transform="translate(-75.493 -296.626)" fill="#e2a876"/>
      </g>
      <g id="Group_83" data-name="Group 83" transform="translate(4.448 35.357)">
        <ellipse id="Ellipse_7" data-name="Ellipse 7" cx="1.076" cy="1.075" rx="1.076" ry="1.075" transform="translate(0 11.554)" fill="#e2a876"/>
        <ellipse id="Ellipse_8" data-name="Ellipse 8" cx="1.076" cy="1.075" rx="1.076" ry="1.075" fill="#e2a876"/>
        <ellipse id="Ellipse_9" data-name="Ellipse 9" cx="1.076" cy="1.075" rx="1.076" ry="1.075" transform="translate(0 5.777)" fill="#e2a876"/>
        <ellipse id="Ellipse_10" data-name="Ellipse 10" cx="1.076" cy="1.075" rx="1.076" ry="1.075" transform="translate(0 17.331)" fill="#e2a876"/>
        <ellipse id="Ellipse_11" data-name="Ellipse 11" cx="1.076" cy="1.075" rx="1.076" ry="1.075" transform="translate(0 23.109)" fill="#e2a876"/>
        <ellipse id="Ellipse_12" data-name="Ellipse 12" cx="1.076" cy="1.075" rx="1.076" ry="1.075" transform="translate(0 28.886)" fill="#e2a876"/>
      </g>
      <g id="Group_86" data-name="Group 86" transform="translate(18.339 6.599)">
        <g id="Group_85" data-name="Group 85" transform="translate(0 0.642)">
          <path id="Path_185" data-name="Path 185" d="M160.5,148.342H149.771a2.639,2.639,0,0,1-2.593-3.135l.421-2.2a4.734,4.734,0,0,1,3.031-3.554l4.533-1.644,4.5,1.631a4.72,4.72,0,0,1,2.326,1.831h0a4.706,4.706,0,0,1,.715,1.778l.391,2.188A2.639,2.639,0,0,1,160.5,148.342Z" transform="translate(-147.131 -125.94)" fill="#b8b6ff"/>
          <path id="Path_186" data-name="Path 186" d="M191.457,123.239l-2.536,2.213-2.535-2.213v-3.4h5.071Z" transform="translate(-180.942 -110.465)" fill="#ecbd83"/>
          <path id="Path_187" data-name="Path 187" d="M183.672,55.6v2.88a4.1,4.1,0,0,1-4.107,4.116,4.028,4.028,0,0,1-3.949-4.026V55.6c0-2.224,1.8-3.384,4.028-3.384S183.672,53.38,183.672,55.6Z" transform="translate(-171.665 -52.219)" fill="#f7d4ad"/>
          <g id="Group_84" data-name="Group 84" transform="translate(0 15.33)">
            <path id="Path_188" data-name="Path 188" d="M150.922,165.951v3.888h-1.151a2.639,2.639,0,0,1-2.593-3.135l.421-2.2a4.692,4.692,0,0,1,.714-1.737A3.247,3.247,0,0,1,150.922,165.951Z" transform="translate(-147.131 -162.767)" fill="#a09eef"/>
            <path id="Path_189" data-name="Path 189" d="M236.632,169.85h-1.109v-3.888a3.247,3.247,0,0,1,2.6-3.182,4.707,4.707,0,0,1,.715,1.778l.391,2.188A2.639,2.639,0,0,1,236.632,169.85Z" transform="translate(-223.266 -162.778)" fill="#a09eef"/>
          </g>
        </g>
        <path id="Path_190" data-name="Path 190" d="M183.673,51.418c-.151.116-.263.2-.263.2a7.274,7.274,0,0,1-.927.449c-1.511.6-2.988.627-3.7.126a7.409,7.409,0,0,1-1.025-.912c-.279-.355-1.168-.445-1.9.337a.667.667,0,0,1-.234.167v-.167a4.031,4.031,0,0,1,8.057-.2Z" transform="translate(-171.666 -47.588)" fill="#6e4848"/>
      </g>
    </g>
    <path id="Path_191" data-name="Path 191" d="M368.506,214.737l-3.657-2.862a.575.575,0,0,0-.708,0l-3.657,2.862a.575.575,0,0,1-.929-.452V193.767a.574.574,0,0,1,.575-.574h8.73a.575.575,0,0,1,.575.574v20.518A.575.575,0,0,1,368.506,214.737Z" transform="translate(-296.878 -166.403)" fill="#ff445c"/>
    <path id="Path_192" data-name="Path 192" d="M321.508,52.373c0,1.8-1.96,3.2-2.61,4.773-.674,1.626-.306,4-1.531,5.221s-3.6.854-5.222,1.528c-1.568.65-2.97,2.609-4.773,2.609s-3.2-1.959-4.773-2.609c-1.626-.674-4-.3-5.222-1.528s-.857-3.6-1.531-5.221c-.651-1.568-2.61-2.969-2.61-4.773s1.96-3.2,2.611-4.773c.674-1.626.306-4,1.531-5.221s3.6-.854,5.222-1.528c1.568-.65,2.97-2.609,4.773-2.609s3.2,1.959,4.773,2.609c1.626.674,4,.3,5.222,1.528s.857,3.6,1.531,5.221C319.548,49.169,321.508,50.569,321.508,52.373Z" transform="translate(-239.755 -32.939)" fill="#ff8b59"/>
    <path id="Path_193" data-name="Path 193" d="M353.208,88.969l2.27,3.39a.282.282,0,0,0,.158.114l3.927,1.111a.282.282,0,0,1,.145.446l-2.524,3.206a.281.281,0,0,0-.06.185l.157,4.076a.282.282,0,0,1-.379.275l-3.83-1.408a.281.281,0,0,0-.195,0l-3.83,1.408a.282.282,0,0,1-.379-.275l.157-4.076a.281.281,0,0,0-.06-.185l-2.524-3.206a.282.282,0,0,1,.145-.446l3.927-1.111a.281.281,0,0,0,.158-.114l2.27-3.39A.282.282,0,0,1,353.208,88.969Z" transform="translate(-285.358 -76.524)" fill="#fee07d"/>
  </g>
</svg>
