<svg xmlns="http://www.w3.org/2000/svg" width="129.286" height="56.937" viewBox="0 0 129.286 56.937">
  <g id="Group_121" data-name="Group 121" transform="translate(-338 -8.293)">
    <path id="rgba_231_235_236_1_" data-name="rgba(231,235,236,1)" d="M1141.5,697l1.647.057-1.647.057Z" transform="translate(-690.971 -664.716)" fill="#fff"/>
    <path id="rgba_231_235_236_1_2" data-name="rgba(231,235,236,1)" d="M1135.5,698l.4.057-.4.057Z" transform="translate(-685.653 -665.603)" fill="#fff"/>
    <path id="rgba_231_235_236_1_3" data-name="rgba(231,235,236,1)" d="M1158.5,698l.4.057-.4.057Z" transform="translate(-706.04 -665.603)" fill="#fff"/>
    <path id="rgba_231_235_236_1_4" data-name="rgba(231,235,236,1)" d="M1132.5,699l.17.057-.17.057Z" transform="translate(-682.993 -666.489)" fill="#fff"/>
    <path id="rgba_231_235_236_1_5" data-name="rgba(231,235,236,1)" d="M1164.5,699l.17.057-.17.057Z" transform="translate(-711.358 -666.489)" fill="#fff"/>
    <path id="rgba_231_235_236_1_6" data-name="rgba(231,235,236,1)" d="M945,700l8.975.057-8.8.057-.114.114Z" transform="translate(-516.795 -667.375)" fill="#fff"/>
    <path id="rgba_231_235_236_1_7" data-name="rgba(231,235,236,1)" d="M1033,700h6.93v3.124l-.17.17h-2.5l-.114.114q-.17-.114.114-.227h2.556v-3.067h-6.7v15.564l6.93.057-6.873.057-.17-.17Z" transform="translate(-594.797 -667.375)" fill="#fff"/>
    <path id="rgba_231_235_236_1_8" data-name="rgba(231,235,236,1)" d="M1129.5,700l.17.057-.17.057Z" transform="translate(-680.334 -667.375)" fill="#fff"/>
    <path id="rgba_231_235_236_1_9" data-name="rgba(231,235,236,1)" d="M1167.5,700l.17.057-.17.057Z" transform="translate(-714.017 -667.375)" fill="#fff"/>
    <path id="rgba_231_235_236_1_10" data-name="rgba(231,235,236,1)" d="M1205,700l4.2.057-4.09.057v15.508l.057.057h3.863v.114h-3.863l-.17-.17Z" transform="translate(-747.257 -667.375)" fill="#fff"/>
    <path id="rgba_231_235_236_1_11" data-name="rgba(231,235,236,1)" d="M1243.466,700l4.2.057-4.09.057v5.51l-.057.057H1242.5v-.114h.909l.057-.057Z" transform="translate(-780.497 -667.375)" fill="#fff"/>
    <path id="rgba_231_235_236_1_12" data-name="rgba(231,235,236,1)" d="M1127.5,701v0Z" transform="translate(-678.562 -668.262)" fill="#fff"/>
    <path id="rgba_231_235_236_1_13" data-name="rgba(231,235,236,1)" d="M1170.5,701v0Z" transform="translate(-716.676 -668.262)" fill="#fff"/>
    <path id="rgba_231_235_236_1_14" data-name="rgba(231,235,236,1)" d="M1125.5,702v0Z" transform="translate(-676.789 -669.148)" fill="#fff"/>
    <path id="rgba_231_235_236_1_15" data-name="rgba(231,235,236,1)" d="M1172.5,702v0Z" transform="translate(-718.449 -669.148)" fill="#fff"/>
    <path id="rgba_231_235_236_1_16" data-name="rgba(231,235,236,1)" d="M1123.5,703v0Z" transform="translate(-675.016 -670.035)" fill="#fff"/>
    <path id="rgba_231_235_236_1_17" data-name="rgba(231,235,236,1)" d="M1173.987,703l.511.4-.057.057-.227-.227Q1173.783,703.148,1173.987,703Z" transform="translate(-719.709 -670.035)" fill="#fff"/>
    <path id="rgba_231_235_236_1_18" data-name="rgba(231,235,236,1)" d="M1120.115,704q.17.114-.114.227Q1119.831,704.114,1120.115,704Z" transform="translate(-671.858 -670.921)" fill="#fff"/>
    <path id="rgba_231_235_236_1_19" data-name="rgba(231,235,236,1)" d="M1115.284,707l.057.057-.284.284-.057-.057Z" transform="translate(-667.482 -673.58)" fill="#fff"/>
    <path id="rgba_231_235_236_1_20" data-name="rgba(231,235,236,1)" d="M1181,708q.284.114.114.227Q1180.831,708.114,1181,708Z" transform="translate(-725.928 -674.467)" fill="#fff"/>
    <path id="rgba_231_235_236_1_21" data-name="rgba(231,235,236,1)" d="M1112.115,712q.17.114-.114.227Q1111.831,712.114,1112.115,712Z" transform="translate(-664.767 -678.012)" fill="#fff"/>
    <path id="rgba_231_235_236_1_22" data-name="rgba(231,235,236,1)" d="M1184,712q.284.114.114.227Q1183.831,712.114,1184,712Z" transform="translate(-728.587 -678.012)" fill="#fff"/>
    <path id="rgba_231_235_236_1_23" data-name="rgba(231,235,236,1)" d="M1110.115,715q.17.114-.114.227Q1109.831,715.114,1110.115,715Z" transform="translate(-662.994 -680.671)" fill="#fff"/>
    <path id="rgba_231_235_236_1_24" data-name="rgba(231,235,236,1)" d="M1186.5,715v0Z" transform="translate(-730.859 -680.671)" fill="#fff"/>
    <path id="rgba_231_235_236_1_25" data-name="rgba(231,235,236,1)" d="M1187.5,717v0Z" transform="translate(-731.745 -682.444)" fill="#fff"/>
    <path id="rgba_231_235_236_1_26" data-name="rgba(231,235,236,1)" d="M1109.057,718l.057.17H1109Z" transform="translate(-662.163 -683.33)" fill="#fff"/>
    <path id="rgba_231_235_236_1_27" data-name="rgba(231,235,236,1)" d="M1188.057,719l.057.17H1188Z" transform="translate(-732.188 -684.217)" fill="#fff"/>
    <path id="rgba_231_235_236_1_28" data-name="rgba(231,235,236,1)" d="M1108.5,721v0Z" transform="translate(-661.72 -685.99)" fill="#fff"/>
    <path id="rgba_231_235_236_1_29" data-name="rgba(231,235,236,1)" d="M1147.5,720.8q.625-.114.738.284l-.057.057-.227-.227h-.454Z" transform="translate(-696.289 -685.793)" fill="#fff"/>
    <path id="rgba_231_235_236_1_30" data-name="rgba(231,235,236,1)" d="M1144.115,722q.17.114-.114.227Q1143.831,722.114,1144.115,722Z" transform="translate(-693.132 -686.876)" fill="#fff"/>
    <path id="rgba_231_235_236_1_31" data-name="rgba(231,235,236,1)" d="M1189.057,722l.057.284H1189Z" transform="translate(-733.075 -686.876)" fill="#fff"/>
    <path id="rgba_231_235_236_1_32" data-name="rgba(231,235,236,1)" d="M1107.057,724l.057.284H1107Z" transform="translate(-660.391 -688.649)" fill="#fff"/>
    <path id="rgba_231_235_236_1_33" data-name="rgba(231,235,236,1)" d="M1143.057,725l.057.17H1143Z" transform="translate(-692.301 -689.535)" fill="#fff"/>
    <path id="rgba_231_235_236_1_34" data-name="rgba(231,235,236,1)" d="M1154.057,725l.057.625H1154Z" transform="translate(-702.051 -689.535)" fill="#fff"/>
    <path id="rgba_231_235_236_1_35" data-name="rgba(231,235,236,1)" d="M945,727l.114.114h2.329v12.44l.057.057h3.863v.114H947.5l-.17-.17v-12.27l-.057-.057h-2.159Q944.831,727.114,945,727Z" transform="translate(-516.74 -691.308)" fill="#fff"/>
    <path id="rgba_231_235_236_1_36" data-name="rgba(231,235,236,1)" d="M1003.5,728l2.329.057-2.329.057Z" transform="translate(-568.649 -692.194)" fill="#fff"/>
    <path id="rgba_231_235_236_1_37" data-name="rgba(231,235,236,1)" d="M1190.057,728l.057.4H1190Z" transform="translate(-733.961 -692.194)" fill="#fff"/>
    <path id="rgba_231_235_236_1_38" data-name="rgba(231,235,236,1)" d="M1106.057,729l.057,7.328H1106Z" transform="translate(-659.504 -693.081)" fill="#fff"/>
    <path id="rgba_231_235_236_1_39" data-name="rgba(231,235,236,1)" d="M1142.057,732l.057,8.464H1142Z" transform="translate(-691.414 -695.74)" fill="#fff"/>
    <path id="rgba_231_235_236_1_40" data-name="rgba(231,235,236,1)" d="M1191.057,737l.057,2.67H1191Z" transform="translate(-734.847 -700.172)" fill="#fff"/>
    <path id="rgba_231_235_236_1_41" data-name="rgba(231,235,236,1)" d="M1155.5,760v0Z" transform="translate(-703.38 -720.559)" fill="#fff"/>
    <path id="rgba_231_235_236_1_42" data-name="rgba(231,235,236,1)" d="M1069.115,780l2.443.057-2.443.057-.114.114Q1068.831,780.114,1069.115,780Z" transform="translate(-626.652 -738.287)" fill="#fff"/>
    <path id="rgba_231_235_236_1_43" data-name="rgba(231,235,236,1)" d="M1242.5,780h1.022l.057.057v6.532h4.033v.114h-3.976l-.17-.17V780.17l-.057-.057h-.909Z" transform="translate(-780.497 -738.287)" fill="#fff"/>
    <path id="rgba_231_235_236_1_44" data-name="rgba(231,235,236,1)" d="M1155.5,782h3.976l.17.17-.057,1.875-.057-1.931H1155.5Z" transform="translate(-703.38 -740.06)" fill="#fff"/>
    <path id="rgba_231_235_236_1_45" data-name="rgba(231,235,236,1)" d="M1106.057,795l.057,1.193H1106Z" transform="translate(-659.504 -751.583)" fill="#fff"/>
    <path id="rgba_231_235_236_1_46" data-name="rgba(231,235,236,1)" d="M1154.057,806l.057.625H1154Z" transform="translate(-702.051 -761.333)" fill="#fff"/>
    <path id="rgba_231_235_236_1_47" data-name="rgba(231,235,236,1)" d="M1190.057,806l.057.4H1190Z" transform="translate(-733.961 -761.333)" fill="#fff"/>
    <path id="rgba_231_235_236_1_48" data-name="rgba(231,235,236,1)" d="M1107.057,809l.057.4H1107Z" transform="translate(-660.391 -763.992)" fill="#fff"/>
    <path id="rgba_231_235_236_1_49" data-name="rgba(231,235,236,1)" d="M1070.5,810l2.9.057-2.9.057Z" transform="translate(-628.037 -764.878)" fill="#fff"/>
    <path id="rgba_231_235_236_1_50" data-name="rgba(231,235,236,1)" d="M1143.057,812l.057.17H1143Z" transform="translate(-692.301 -766.651)" fill="#fff"/>
    <path id="rgba_231_235_236_1_51" data-name="rgba(231,235,236,1)" d="M1189.057,813l.057.284H1189Z" transform="translate(-733.075 -767.538)" fill="#fff"/>
    <path id="rgba_231_235_236_1_52" data-name="rgba(231,235,236,1)" d="M1153.5,814v0Z" transform="translate(-701.608 -768.424)" fill="#fff"/>
    <path id="rgba_231_235_236_1_53" data-name="rgba(231,235,236,1)" d="M1108.057,815l.057.17H1108Z" transform="translate(-661.277 -769.31)" fill="#fff"/>
    <path id="rgba_231_235_236_1_54" data-name="rgba(231,235,236,1)" d="M1144,815q.284.114.114.227Q1143.831,815.114,1144,815Z" transform="translate(-693.132 -769.31)" fill="#fff"/>
    <path id="rgba_231_235_236_1_55" data-name="rgba(231,235,236,1)" d="M1147.5,817l.284.057-.284.057Z" transform="translate(-696.289 -771.083)" fill="#fff"/>
    <path id="rgba_231_235_236_1_56" data-name="rgba(231,235,236,1)" d="M1188.057,817l.057.17H1188Z" transform="translate(-732.188 -771.083)" fill="#fff"/>
    <path id="rgba_231_235_236_1_57" data-name="rgba(231,235,236,1)" d="M1109.06,819l.17.4h-.114A.283.283,0,0,1,1109.06,819Z" transform="translate(-662.166 -772.856)" fill="#fff"/>
    <path id="rgba_231_235_236_1_58" data-name="rgba(231,235,236,1)" d="M1185.727,820l.057.17-.284.4.057-.17Z" transform="translate(-729.972 -773.742)" fill="#fff"/>
    <path id="rgba_231_235_236_1_59" data-name="rgba(231,235,236,1)" d="M1111,824q.284.114.114.227Q1110.831,824.114,1111,824Z" transform="translate(-663.881 -777.288)" fill="#fff"/>
    <path id="rgba_231_235_236_1_60" data-name="rgba(231,235,236,1)" d="M1113.057,827l.738.739-.057.057-.739-.739Z" transform="translate(-665.709 -779.947)" fill="#fff"/>
    <path id="rgba_231_235_236_1_61" data-name="rgba(231,235,236,1)" d="M1179.511,827l.057.057-.511.511-.057-.057Z" transform="translate(-724.211 -779.947)" fill="#fff"/>
    <path id="rgba_231_235_236_1_62" data-name="rgba(231,235,236,1)" d="M1173.456,832l.057.057-.284.284-.227.114q-.17-.114.114-.227Z" transform="translate(-718.837 -784.379)" fill="#fff"/>
    <path id="rgba_231_235_236_1_63" data-name="rgba(231,235,236,1)" d="M1121.5,834v0Z" transform="translate(-673.243 -786.152)" fill="#fff"/>
    <path id="rgba_231_235_236_1_64" data-name="rgba(231,235,236,1)" d="M1123.057,835l.511.284-.17.057-.4-.284Z" transform="translate(-674.573 -787.038)" fill="#fff"/>
    <path id="rgba_231_235_236_1_65" data-name="rgba(231,235,236,1)" d="M1171.5,836v0Z" transform="translate(-717.563 -787.925)" fill="#fff"/>
    <path id="rgba_231_235_236_1_66" data-name="rgba(231,235,236,1)" d="M1169.5,837v0Z" transform="translate(-715.79 -788.811)" fill="#fff"/>
    <path id="rgba_231_235_236_1_67" data-name="rgba(231,235,236,1)" d="M1129.5,838l.17.057-.17.057Z" transform="translate(-680.334 -789.698)" fill="#fff"/>
    <path id="rgba_231_235_236_1_68" data-name="rgba(231,235,236,1)" d="M1166.5,838l.17.057-.17.057Z" transform="translate(-713.131 -789.698)" fill="#fff"/>
    <path id="rgba_231_235_236_1_69" data-name="rgba(231,235,236,1)" d="M1132.5,839l.17.057-.17.057Z" transform="translate(-682.993 -790.584)" fill="#fff"/>
    <path id="rgba_231_235_236_1_70" data-name="rgba(231,235,236,1)" d="M1163.5,839l.17.057-.17.057Z" transform="translate(-710.472 -790.584)" fill="#fff"/>
    <path id="rgba_231_235_236_1_71" data-name="rgba(231,235,236,1)" d="M1136.5,840l.511.057-.511.057Z" transform="translate(-686.539 -791.47)" fill="#fff"/>
    <path id="rgba_231_235_236_1_72" data-name="rgba(231,235,236,1)" d="M1157.5,840l.4.057-.4.057Z" transform="translate(-705.153 -791.47)" fill="#fff"/>
    <path id="rgba_231_235_236_1_73" data-name="rgba(231,235,236,1)" d="M1145.5,841l.852.057-.852.057Z" transform="translate(-694.517 -792.357)" fill="#fff"/>
    <path id="rgba_254_254_254_1_" data-name="rgba(254,254,254,1)" d="M1139.5,697l.17.057-.17.057Z" transform="translate(-689.198 -664.716)" fill="#fff"/>
    <path id="rgba_254_254_254_1_2" data-name="rgba(254,254,254,1)" d="M1156.5,697l.17.057-.17.057Z" transform="translate(-704.267 -664.716)" fill="#fff"/>
    <path id="rgba_254_254_254_1_3" data-name="rgba(254,254,254,1)" d="M1134.5,698v0Z" transform="translate(-684.766 -665.603)" fill="#fff"/>
    <path id="rgba_254_254_254_1_4" data-name="rgba(254,254,254,1)" d="M1162.5,698v0Z" transform="translate(-709.585 -665.603)" fill="#fff"/>
    <path id="rgba_254_254_254_1_5" data-name="rgba(254,254,254,1)" d="M1131.5,699v0Z" transform="translate(-682.107 -666.489)" fill="#fff"/>
    <path id="rgba_254_254_254_1_6" data-name="rgba(254,254,254,1)" d="M1166.5,699v0Z" transform="translate(-713.131 -666.489)" fill="#fff"/>
    <path id="rgba_254_254_254_1_7" data-name="rgba(254,254,254,1)" d="M559.5,700v0Z" transform="translate(-175.091 -667.375)" fill="#fff"/>
    <path id="rgba_254_254_254_1_8" data-name="rgba(254,254,254,1)" d="M596.5,700v0Z" transform="translate(-207.887 -667.375)" fill="#fff"/>
    <path id="rgba_254_254_254_1_9" data-name="rgba(254,254,254,1)" d="M648.5,700v0Z" transform="translate(-253.98 -667.375)" fill="#fff"/>
    <path id="rgba_254_254_254_1_10" data-name="rgba(254,254,254,1)" d="M1024.057,700l.057,3.238H1024Z" transform="translate(-586.82 -667.375)" fill="#fff"/>
    <path id="rgba_254_254_254_1_11" data-name="rgba(254,254,254,1)" d="M1288.057,700l.057,15.735H1288Z" transform="translate(-820.827 -667.375)" fill="#fff"/>
    <path id="rgba_254_254_254_1_12" data-name="rgba(254,254,254,1)" d="M1126.5,701v0Z" transform="translate(-677.675 -668.262)" fill="#fff"/>
    <path id="rgba_254_254_254_1_13" data-name="rgba(254,254,254,1)" d="M1171.5,701v0Z" transform="translate(-717.563 -668.262)" fill="#fff"/>
    <path id="rgba_254_254_254_1_14" data-name="rgba(254,254,254,1)" d="M1124.5,702v0Z" transform="translate(-675.902 -669.148)" fill="#fff"/>
    <path id="rgba_254_254_254_1_15" data-name="rgba(254,254,254,1)" d="M1173.5,702v0Z" transform="translate(-719.335 -669.148)" fill="#fff"/>
    <path id="rgba_254_254_254_1_16" data-name="rgba(254,254,254,1)" d="M1118.5,706v0Z" transform="translate(-670.584 -672.694)" fill="#fff"/>
    <path id="rgba_254_254_254_1_17" data-name="rgba(254,254,254,1)" d="M1180.5,707v0Z" transform="translate(-725.54 -673.58)" fill="#fff"/>
    <path id="rgba_254_254_254_1_18" data-name="rgba(254,254,254,1)" d="M1113.115,710q.17.114-.114.227Q1112.831,710.114,1113.115,710Z" transform="translate(-665.653 -676.239)" fill="#fff"/>
    <path id="rgba_254_254_254_1_19" data-name="rgba(254,254,254,1)" d="M1183.5,710v0Z" transform="translate(-728.199 -676.239)" fill="#fff"/>
    <path id="rgba_254_254_254_1_20" data-name="rgba(254,254,254,1)" d="M1111.5,714v0Z" transform="translate(-664.379 -679.785)" fill="#fff"/>
    <path id="rgba_254_254_254_1_21" data-name="rgba(254,254,254,1)" d="M1186.5,714v0Z" transform="translate(-730.859 -679.785)" fill="#fff"/>
    <path id="rgba_254_254_254_1_22" data-name="rgba(254,254,254,1)" d="M1187.5,716v0Z" transform="translate(-731.745 -681.558)" fill="#fff"/>
    <path id="rgba_254_254_254_1_23" data-name="rgba(254,254,254,1)" d="M1188.5,718v0Z" transform="translate(-732.631 -683.33)" fill="#fff"/>
    <path id="rgba_254_254_254_1_24" data-name="rgba(254,254,254,1)" d="M1108.5,720v0Z" transform="translate(-661.72 -685.103)" fill="#fff"/>
    <path id="rgba_254_254_254_1_25" data-name="rgba(254,254,254,1)" d="M1107.5,723v0Z" transform="translate(-660.834 -687.762)" fill="#fff"/>
    <path id="rgba_254_254_254_1_26" data-name="rgba(254,254,254,1)" d="M1190.057,726l.057.17H1190Z" transform="translate(-733.961 -690.422)" fill="#fff"/>
    <path id="rgba_254_254_254_1_27" data-name="rgba(254,254,254,1)" d="M1143.057,727l.057.284H1143Z" transform="translate(-692.301 -691.308)" fill="#fff"/>
    <path id="rgba_254_254_254_1_28" data-name="rgba(254,254,254,1)" d="M945.5,728v0Z" transform="translate(-517.238 -692.194)" fill="#fff"/>
    <path id="rgba_254_254_254_1_29" data-name="rgba(254,254,254,1)" d="M1093.5,728v0Z" transform="translate(-648.424 -692.194)" fill="#fff"/>
    <path id="rgba_254_254_254_1_30" data-name="rgba(254,254,254,1)" d="M1106.5,728v0Z" transform="translate(-659.947 -692.194)" fill="#fff"/>
    <path id="rgba_254_254_254_1_31" data-name="rgba(254,254,254,1)" d="M1154.057,731l.057,3.465H1154Z" transform="translate(-702.051 -694.854)" fill="#fff"/>
    <path id="rgba_254_254_254_1_32" data-name="rgba(254,254,254,1)" d="M1191.5,736v0Z" transform="translate(-735.291 -699.286)" fill="#fff"/>
    <path id="rgba_254_254_254_1_33" data-name="rgba(254,254,254,1)" d="M1070.5,753h2.556v3.124h-.114v-3.011H1070.5Z" transform="translate(-628.037 -714.354)" fill="#fff"/>
    <path id="rgba_254_254_254_1_34" data-name="rgba(254,254,254,1)" d="M1191.5,761v0Z" transform="translate(-735.291 -721.445)" fill="#fff"/>
    <path id="rgba_254_254_254_1_35" data-name="rgba(254,254,254,1)" d="M1191.5,782v0Z" transform="translate(-735.291 -740.06)" fill="#fff"/>
    <path id="rgba_254_254_254_1_36" data-name="rgba(254,254,254,1)" d="M1154.057,783l.057,2.556H1154Z" transform="translate(-702.051 -740.946)" fill="#fff"/>
    <path id="rgba_254_254_254_1_37" data-name="rgba(254,254,254,1)" d="M1191.5,800v0Z" transform="translate(-735.291 -756.015)" fill="#fff"/>
    <path id="rgba_254_254_254_1_38" data-name="rgba(254,254,254,1)" d="M1106.5,806v0Z" transform="translate(-659.947 -761.333)" fill="#fff"/>
    <path id="rgba_254_254_254_1_39" data-name="rgba(254,254,254,1)" d="M1143.057,809l.057.284H1143Z" transform="translate(-692.301 -763.992)" fill="#fff"/>
    <path id="rgba_254_254_254_1_40" data-name="rgba(254,254,254,1)" d="M1095.17,810l.057,3.124q-.114.284-.227.114l.114-.114Z" transform="translate(-649.754 -764.878)" fill="#fff"/>
    <path id="rgba_254_254_254_1_41" data-name="rgba(254,254,254,1)" d="M1190.057,810l.057.17H1190Z" transform="translate(-733.961 -764.878)" fill="#fff"/>
    <path id="rgba_254_254_254_1_42" data-name="rgba(254,254,254,1)" d="M1107.5,813v0Z" transform="translate(-660.834 -767.538)" fill="#fff"/>
    <path id="rgba_254_254_254_1_43" data-name="rgba(254,254,254,1)" d="M1153.5,813v0Z" transform="translate(-701.608 -767.538)" fill="#fff"/>
    <path id="rgba_254_254_254_1_44" data-name="rgba(254,254,254,1)" d="M1151.5,816v0Z" transform="translate(-699.835 -770.197)" fill="#fff"/>
    <path id="rgba_254_254_254_1_45" data-name="rgba(254,254,254,1)" d="M1189.5,816v0Z" transform="translate(-733.518 -770.197)" fill="#fff"/>
    <path id="rgba_254_254_254_1_46" data-name="rgba(254,254,254,1)" d="M1108.5,817v0Z" transform="translate(-661.72 -771.083)" fill="#fff"/>
    <path id="rgba_254_254_254_1_47" data-name="rgba(254,254,254,1)" d="M1188.5,819v0Z" transform="translate(-732.631 -772.856)" fill="#fff"/>
    <path id="rgba_254_254_254_1_48" data-name="rgba(254,254,254,1)" d="M1112.5,826v0Z" transform="translate(-665.266 -779.061)" fill="#fff"/>
    <path id="rgba_254_254_254_1_49" data-name="rgba(254,254,254,1)" d="M1184.5,826v0Z" transform="translate(-729.086 -779.061)" fill="#fff"/>
    <path id="rgba_254_254_254_1_50" data-name="rgba(254,254,254,1)" d="M1120.5,834v0Z" transform="translate(-672.357 -786.152)" fill="#fff"/>
    <path id="rgba_254_254_254_1_51" data-name="rgba(254,254,254,1)" d="M1122.5,835v0Z" transform="translate(-674.13 -787.038)" fill="#fff"/>
    <path id="rgba_254_254_254_1_52" data-name="rgba(254,254,254,1)" d="M1172.5,836v0Z" transform="translate(-718.449 -787.925)" fill="#fff"/>
    <path id="rgba_254_254_254_1_53" data-name="rgba(254,254,254,1)" d="M1170.5,837v0Z" transform="translate(-716.676 -788.811)" fill="#fff"/>
    <path id="rgba_254_254_254_1_54" data-name="rgba(254,254,254,1)" d="M559.5,838v0Z" transform="translate(-175.091 -789.698)" fill="#fff"/>
    <path id="rgba_254_254_254_1_55" data-name="rgba(254,254,254,1)" d="M596.5,838v0Z" transform="translate(-207.887 -789.698)" fill="#fff"/>
    <path id="rgba_254_254_254_1_56" data-name="rgba(254,254,254,1)" d="M611.5,838v0Z" transform="translate(-221.183 -789.698)" fill="#fff"/>
    <path id="rgba_254_254_254_1_57" data-name="rgba(254,254,254,1)" d="M679.5,838v0Z" transform="translate(-281.458 -789.698)" fill="#fff"/>
    <path id="rgba_254_254_254_1_58" data-name="rgba(254,254,254,1)" d="M821.5,838v0Z" transform="translate(-407.326 -789.698)" fill="#fff"/>
    <path id="rgba_254_254_254_1_59" data-name="rgba(254,254,254,1)" d="M966.5,838v0Z" transform="translate(-535.852 -789.698)" fill="#fff"/>
    <path id="rgba_254_254_254_1_60" data-name="rgba(254,254,254,1)" d="M1002.5,838v0Z" transform="translate(-567.762 -789.698)" fill="#fff"/>
    <path id="rgba_254_254_254_1_61" data-name="rgba(254,254,254,1)" d="M1033.5,838v0Z" transform="translate(-595.241 -789.698)" fill="#fff"/>
    <path id="rgba_254_254_254_1_62" data-name="rgba(254,254,254,1)" d="M1128.5,838v0Z" transform="translate(-679.448 -789.698)" fill="#fff"/>
    <path id="rgba_254_254_254_1_63" data-name="rgba(254,254,254,1)" d="M1205.5,838v0Z" transform="translate(-747.7 -789.698)" fill="#fff"/>
    <path id="rgba_254_254_254_1_64" data-name="rgba(254,254,254,1)" d="M1241.5,838v0Z" transform="translate(-779.61 -789.698)" fill="#fff"/>
    <path id="rgba_254_254_254_1_65" data-name="rgba(254,254,254,1)" d="M1251.5,838v0Z" transform="translate(-788.474 -789.698)" fill="#fff"/>
    <path id="rgba_254_254_254_1_66" data-name="rgba(254,254,254,1)" d="M1131.5,839v0Z" transform="translate(-682.107 -790.584)" fill="#fff"/>
    <path id="rgba_254_254_254_1_67" data-name="rgba(254,254,254,1)" d="M1165.5,839v0Z" transform="translate(-712.244 -790.584)" fill="#fff"/>
    <path id="rgba_254_254_254_1_68" data-name="rgba(254,254,254,1)" d="M1135.5,840v0Z" transform="translate(-685.653 -791.47)" fill="#fff"/>
    <path id="rgba_254_254_254_1_69" data-name="rgba(254,254,254,1)" d="M1161.5,840v0Z" transform="translate(-708.699 -791.47)" fill="#fff"/>
    <path id="rgba_254_254_254_1_70" data-name="rgba(254,254,254,1)" d="M1142.5,841l.284.057-.284.057Z" transform="translate(-691.857 -792.357)" fill="#fff"/>
    <path id="rgba_254_254_254_1_71" data-name="rgba(254,254,254,1)" d="M1153.5,841l.284.057-.284.057Z" transform="translate(-701.608 -792.357)" fill="#fff"/>
    <path id="rgba_46_46_46_1_" data-name="rgba(46,46,46,1)" d="M174.574,659l.852.057-1.193.4-1.7.341-.114.114-.909.114-.114.114h-.568l-.114.114h-.454l-.114.114h-.454l-.682.227h-.568l-.114.114-.909.114-.114.114h-.454l-.114.114h-.625l.114.4,1.7,2.613.909,1.818v.227l.454.8v.227l.454.909.568,1.7v.341l.227.454.114.909.227.568.114,1.25.114.114v.682l.114.114v1.25l.114.114V677.8l-.114.114v1.136l-.114.114L171,680.642l-.341,1.022-.114.909-.682,2.045-1.363,2.84-1.136,1.818-1.022,1.363-3.011,3.124-2.045,1.7-.8.454-1.7,1.363-2.5,1.7-1.818.909-.227.227h-.227a1.933,1.933,0,0,1-1.022.454q-.17-.114.114-.227l1.022-.341,1.931-1.136,1.591-1.25,1.25-1.25h.17v-.17l2.045-2.159,1.818-2.386.114-.341.341-.341,1.25-2.045,1.25-2.386v-.227l.341-.568v-.227l.227-.341.114-.568.227-.341.454-1.363v-.341l.341-1.022V681.1l.114-.114v-.568l.114-.114q-.136-.534.114-.682v-3.635l-.114-.114-.114-1.931-.114-.114v-.682l-.114-.114-.114-1.477-.114-.114v-.568l-.114-.114q.148-.534-.114-.682V669.4l-.114-.114v-.568l-.114-.114-.114-1.25-.114-.114v-.682l-.114-.114v-.682l-.114-.114L166,661.272h-.625l-1.022.341h-.454l-.454.227H163.1l-1.25.454h-.341l-.682.341h-.341l-1.591.682h-.227l-.8.454h-.227l-1.591,1.022-1.42,1.42-.454.909v.568l-.114.341.114.114v.568l.341.682v.227l1.022,1.363-.284.057-.114-.114-1.25-.114-.114-.114h-.454l-.114-.114-.682-.114a2.439,2.439,0,0,1-1.193-.966L151,668.145l.114-.341v-.568l.454-1.022,1.761-1.875,1.591-1.022,2.272-1.136.568-.114.341-.227,2.045-.682.8-.114.454-.227h.568l1.022-.341h.568l.114-.114,1.25-.114.114-.114h.682l.114-.114h.8l.114-.114h.8l.114-.114h1.022l.114-.114h.909l.114-.114h1.022l.114-.114h.8l.114-.114h1.136l.114-.114h.682l.114-.114Q174.437,659.261,174.574,659Zm-8.237,2.727v0Zm.8,1.25v0Zm-13.292,1.25v0Zm14.087.114v0Zm-12.27.568v0Zm-3.408.682v0Zm2.727,0v0Zm-.114.114v0Zm-2.727.114v0Zm2.386.341v0Zm-.114.227v0Zm.341,3.749v0Zm.227.341v0Zm14.2,15.224v0Zm-.568,1.136v0Zm-.454.8v0Zm-.114.227v0Zm-.227.341v0Zm-.682,1.023v0Zm-2.727.454v0Zm2.159.341v0Zm-2.727.568v0Zm2.272,0v0ZM166,690.7v0Zm-2.386.227v0Zm-.454.682v0Zm-.909,1.25v0Zm-.227.341v0Zm-1.136,1.363v0Zm.454.568v0Zm-1.136.227v0Zm.568.227v0Zm-.909.114v0Zm-.227.227v0Zm-.454.8v0Zm-.682.341v0Zm-.341.341v0Z" transform="translate(187 -635.35)" fill="#fff"/>
    <path id="rgba_46_46_46_1_2" data-name="rgba(46,46,46,1)" d="M613.057,701l.114.114h3.522l.17-.057-.057,12.44-.057-12.27H613.17l-.057.057v15.053h6.135v-2.613l-2.272-.057,2.1-.057.284-.114-.057,3.067-.114-.114H613Z" transform="translate(-222.513 -668.262)" fill="#fff"/>
    <path id="rgba_75_75_75_1_" data-name="rgba(75,75,75,1)" d="M612.5,837v0Z" transform="translate(-222.07 -788.811)" fill="#fff"/>
    <path id="rgba_75_75_75_1_2" data-name="rgba(75,75,75,1)" d="M680.5,837v0Z" transform="translate(-282.344 -788.811)" fill="#fff"/>
    <path id="rgba_51_51_51_1_" data-name="rgba(51,51,51,1)" d="M375.783,699l.114.114h2.5l.17-.057-.057.17q.454.114.568-.114v.227l.341-.114v.227l.454.114.17-.057-.057.17.454.227.114-.114.284.284q-.25.136.057.284l.17-.057-.114.227.17.17.17-.057q-.193.091-.114.454l.114.114.057.511.114-.227.057.17-.114.114v1.875h-3.295v-1.42h-.227q.2-.08.114-.454h-.227l.114-.114-.284-.284-.454-.114-.738.625-.114.341v1.022h.114l.057-.966.057.966q-.193.091-.114.454l.625.738.17-.057-.057.17.341.227.17-.057-.057.17.227-.114v.227l.227.114.17-.057-.057.17.8.454.17-.057-.057.17.227.114.17-.057q-.25.148.057.284l.227.114.17-.057-.057.17h.17q-.125.307.17.227l.114.114.17-.057-.114.114.511.511q.148-.25.284.057-.227.114,0,.227l.057.17.17-.057-.114.227h.227l-.114.341h.114l.057-.17.057.17-.114.341h.227q-.25.148-.114.682l.114.114v2.727l.114.114h-.227v.454l-.454.909q.261.136-.057.284-.136-.261-.284.057l.057.17q-.114-.227-.227,0l-.17.057.057.17-.227-.114v.227l-.227-.114-.284.17.057.17-.341-.114-.4.17.057.17q-.114-.227-.568-.114v.227l-.114-.114h-2.045l-.17.057.057-.17q-.454-.114-.568.114v-.227l-.568-.114-.17.057.057-.17-.568-.227-.17.057q.261-.136-.057-.284l-.227-.114-.114.114-.284-.284q.227-.114,0-.227l-.17-.284-.17.057.114-.227-.17-.511-.114.227-.057-.17q.2-.079.114-.454h-.114l-.057.17-.057-.17.114-.114v-1.023l-.114-.114v-1.42h3.408v2.443h.114l.057-.17.057.17-.114.341.17-.057.17.17q-.25.148.057.284,1,.2,1.193-.4l.114-.341-.114-.227h.114l.057.17.057-1.534h-.114l-.057.284-.057-.284q.2-.079.114-.454H378l.114-.227-.17-.284q-.136.261-.284-.057.261-.136-.057-.284l-.341-.227-.17.057q.261-.136-.057-.284l-.227-.114-.17.057.057-.17-.227-.114-.17.057.057-.17-.227-.114-.17.057.057-.17-.227-.114-.17.057.057-.17-.568-.341-.17.057q.25-.136-.057-.284l-.227-.114-.17.057q.261-.136-.057-.284l-.227-.114-.114.114-.284-.284q.284-.17-.114-.341l-.17-.284-.17.057.114-.227h-.227l.114-.227h-.227l.114-.341L373,704.51v-2.727q.227-.114.114-.568l-.057-.17.17.057.341-.852.341-.17q-.08-.25.17-.17v-.227q.114.227.227,0l.17-.057-.057-.17.227.114.4-.17-.057-.17.341.114v-.227q.091.2.454.114Zm4.828.909v0Zm.114.114v0Zm-6.7,6.362v0Zm.114.114v0Zm6.93.8v0Zm-3.181,1.931v0Zm-1.136,3.067v0Zm-2.84,1.363v0Zm7.271,0v0Zm-7.157.114v0Z" transform="translate(-9.779 -666.489)" fill="#fff"/>
    <path id="rgba_51_51_51_1_2" data-name="rgba(51,51,51,1)" d="M612.057,701l.057,15.451,6.248.057-6.192.057-.17-.17Z" transform="translate(-221.626 -668.262)" fill="#fff"/>
    <path id="rgba_51_51_51_1_3" data-name="rgba(51,51,51,1)" d="M614.5,701l3.579.057-3.579.057Z" transform="translate(-223.843 -668.262)" fill="#fff"/>
    <path id="rgba_51_51_51_1_4" data-name="rgba(51,51,51,1)" d="M829.078,702v.227a.986.986,0,0,0,.8-.114v.114l-.17.057.625.17.17-.057-.057.17.341.114.17-.057q-.25.148.057.284l.284.17.341.454.17.511.17-.057q-.227.114-.114.568l.114.114v10.452q-.227.114-.114.568l.057.17-.17-.057-.114.341.057.17-.17-.057-.284.4-.852.4.057.17q-.148-.25-.682-.114l-.114.114H823v-15.11h5.964Zm-1.988,2.272-.341.341v10.111q.114.341.909.227v-.227l.227.114-.114-.114q.114-.341.341-.114l.227-.454v-9.089l-.227-.227q.114-.341-.114-.227-.114-.227-.227,0V704.5ZM828,714.611v0Z" transform="translate(-407.974 -668.921)" fill="#fff"/>
    <path id="rgba_51_51_51_1_5" data-name="rgba(51,51,51,1)" d="M467,703h3.635v5.51l.341.17.057-.227.17.057.114-.682-.057-.17.17.057.227-.682v-.341l-.057-.17.17.057.114-.682-.057-.17.17.057-.114-.341h.227l.114-.682-.057-.17.17.057-.114-.341h.227l.114-.682-.057-.17.17.057-.114-.341h.227l.057-.17h3.295q.284.114.114.227l-.17-.057.114.341h-.227l.114.341h-.227l.114.341h-.227l.114.341h-.227l.114.341h-.227l.114.341h-.227l-.114.568.057.17-.17-.057-.114.568.057.17-.17-.057-.454,1.7.057.17-.17-.057.114.341h-.114l-.057-.17-.17.4v.341l.057.17-.17-.057.114.454-.114.341h.227q-.193.091-.114.454l.17.4.17-.057-.114.341h.227q-.193.091-.114.454h.227l-.114.341h.227q-.193.079-.114.454l.17.4.17-.057-.114.341h.227q-.193.091-.114.454h.227l-.114.341h.227q-.193.091-.114.454l.17.4.17-.057-.114.341h.227q-.193.091-.114.454l.17.4.17-.057-.114.341h.227q-.193.091-.114.454h.227l-.114.341h.227l-.114.341.17.511.17-.057-.17.17h-3.635l-.17-.057.057.17H476.6v.114h-3.976l-.17-.17.114-.568h-.227q.2-.079.114-.454h-.227q.2-.08.114-.454h-.227q.2-.079.114-.454H472q.2-.08.114-.454h-.227q.227-.114.114-.568h-.114l-.057.17-.057-.17.114-.341h-.227q.227-.114.114-.568l-.17-.511-.114.227-.057-.17q.193-.08.114-.454l-.227-.454-.057-.511-.114.227-.057-.17q.227-.125.114-.511l-.4-.114-.17.17v6.078h-3.579l-.057-.057Zm7.044,6.589-.114.341h.114Z" transform="translate(-93.1 -669.921)" fill="#fff"/>
    <path id="rgba_51_51_51_1_6" data-name="rgba(51,51,51,1)" d="M562,703h3.579l.057.057V718.11h-3.579l-.057-.057Z" transform="translate(-177.307 -669.807)" fill="#fff"/>
    <path id="rgba_51_51_51_1_7" data-name="rgba(51,51,51,1)" d="M614,703h3.635v12.213l.057.057h2.272v.114l-2.1.057,2.272.057v2.613H614Z" transform="translate(-223.399 -670.035)" fill="#fff"/>
    <path id="rgba_51_51_51_1_8" data-name="rgba(51,51,51,1)" d="M682,703h3.635v12.213l.057.057h2.272v.114l-2.1.057,2.159.057v2.613H682Z" transform="translate(-283.674 -669.807)" fill="#fff"/>
    <path id="rgba_51_51_51_1_9" data-name="rgba(51,51,51,1)" d="M750,703h6.248v2.613l-2.386.057,2.613.114-2.84.057v2.9l.284.284h2.215v2.5l-2.272.057,2.386.114-2.613.057v3.522h2.9v.114l-2.67.057,2.727.057v2.613H750Z" transform="translate(-343.949 -669.921)" fill="#fff"/>
    <path id="rgba_46_151_200_1_" data-name="rgba(46,151,200,1)" d="M229.282,523.85q.261-.08.17.17l-3.635,7.157v.227l-.682,1.477-.227.682v.341l-.227.454v.341l-.227.568v.454l-.114.114v.568l-.114.114v.8l-.114.114v1.988q-.386-.114-.511.114h-.454l-.114.114h-.568l-.114.114-1.7.341-1.647.568.227-1.875.114-.114.227-1.25.454-1.363.227-.341.114-.568.568-1.022V533.9l.227-.227.8-1.591a26.9,26.9,0,0,1,2.5-3.295Z" transform="translate(126.725 -515.538)" fill="#fff"/>
    <path id="rgba_46_151_200_1_2" data-name="rgba(46,151,200,1)" d="M205.328,692.961q.318-.023.284.057v1.136l.114.114v1.363l.114.114v1.25l.114.114.114,2.5.114.114v1.25l.114.114v1.363l.114.114v1.818l.114.114v4.772l-.114.227q.227.114,0,.227l-.114,2.158-.114.114v.568l-.114.114-.227,1.591L204.7,717.67l-.909,1.818-.8,1.25-2.5,3.181-1.193,1.193-1.022.568h-.227l-.057-.057.341-.341,1.25-1.818.682-1.363.227-.227,1.136-2.386v-.227l.227-.341.568-1.7v-.341l.227-.568v-.454l.114-.114v-.568l.114-.114v-.682l.114-.114v-3.635l-.114-.114v-1.022l-.114-.114-.114-1.363-.114-.114v-.454l-.227-.682V706.2l-.114-.114-.114-.909-.114-.114v-.341l-.341-1.022v-.454l-.341-1.022v-.454l-.227-.568v-.454l-.114-.114v-.454l-.114-.114v-.454l-.227-.682v-.682l-.114-.114v-.682l-.114-.114V696.2l-.114-.114v-1.363l.738-.4,2.727-.909,1.136-.227Z" transform="translate(145.34 -665.448)" fill="#fff"/>
    <path id="rgba_46_151_200_1_3" data-name="rgba(46,151,200,1)" d="M1109.806,698h2.045q.148.261.682.114l1.136.454,1.193.966.454.8.114.682.114.114v.682l.114.114v3.238h-3.919l-.17-.17v-3.863l-.4-.511q-.659-.091-.852.284a1.124,1.124,0,0,0-.114.909l-.114.114v8.407l.114.114v.682l.284.4.454.114.511-.4.114-.341v-3.238h4.09v2.556l-.114.114v.682l-.114.114-.114.682a2.773,2.773,0,0,1-1.079,1.42l-.682.454-1.136.454q-.534-.136-.682.114h-1.7l-.114-.114h-.682l-1.591-.682-.852-.852-.227-.341-.341-1.022q.136-.534-.114-.682v-1.477l-.114-.114.114-.114v-7.5l.114-.114v-.454l.227-.341v-.227l.454-.682.625-.625,1.022-.568.682-.227h.454Z" transform="translate(-659.504 -665.603)" fill="#fff"/>
    <path id="rgba_46_151_200_1_4" data-name="rgba(46,151,200,1)" d="M945.17,701h8.8v3.067h-2.329l-.057.057v12.44H947.5v-12.44l-.057-.057H945.17l-.17-.17V701.17Z" transform="translate(-516.795 -668.262)" fill="#fff"/>
    <path id="rgba_46_151_200_1_5" data-name="rgba(46,151,200,1)" d="M1034,701h6.7v3.067h-2.556l-.17.17.114.114v2.67h2.5v2.954h-2.443l-.17.17.114.114V713.5h2.954v3.067H1034Z" transform="translate(-595.684 -668.262)" fill="#fff"/>
    <path id="rgba_46_151_200_1_6" data-name="rgba(46,151,200,1)" d="M1206,701h4.09v5.51l.057.057h1.079V701h4.09v15.508l-.057.057h-4.033v-6.532l-.057-.057h-1.079v6.589H1206Z" transform="translate(-748.143 -668.262)" fill="#fff"/>
    <path id="rgba_46_151_200_1_7" data-name="rgba(46,151,200,1)" d="M648.5,810v0Z" transform="translate(-253.98 -764.878)" fill="#fff"/>
  </g>
</svg>
