<svg xmlns="http://www.w3.org/2000/svg" width="58.813" height="77.526" viewBox="0 0 58.813 77.526">
  <g id="operator" transform="translate(-61.793)">
    <path id="Path_194" data-name="Path 194" d="M139.094,47.782a2.7,2.7,0,0,1-1.584,2.464C131.45,53.058,123.026,54.8,113.7,54.8S95.958,53.058,89.9,50.247a2.705,2.705,0,0,1-1.584-2.464C88.5,22.268,93.171,0,113.7,0S138.9,22.268,139.094,47.782Z" transform="translate(-22.505)" fill="#5a4146"/>
    <path id="Path_195" data-name="Path 195" d="M100.556,306.6v-6.466H81.843V306.6a4.01,4.01,0,0,1-2.742,3.8l-12.738,4.246a6.683,6.683,0,0,0-4.57,6.34v8.549a2.673,2.673,0,0,0,2.673,2.673h53.466a2.673,2.673,0,0,0,2.673-2.673v-8.549a6.683,6.683,0,0,0-4.57-6.34L103.3,310.408A4.01,4.01,0,0,1,100.556,306.6Z" transform="translate(0 -254.692)" fill="#e6af78"/>
    <path id="Path_196" data-name="Path 196" d="M180.493,306.6a4,4,0,0,1-2.447,3.679c14.978,2.553,21.156-8.14,21.156-8.14l0,0v-2H180.493Z" transform="translate(-98.65 -254.692)" fill="#d29b6e"/>
    <path id="Path_197" data-name="Path 197" d="M116.036,376.565,105.628,373.1c-4.954,6.721-10.736,10.476-14.428,11.676-3.692-1.2-9.474-4.955-14.428-11.676l-10.408,3.469a6.683,6.683,0,0,0-4.57,6.34v8.549a2.673,2.673,0,0,0,2.673,2.673h53.466a2.673,2.673,0,0,0,2.673-2.673v-8.549A6.683,6.683,0,0,0,116.036,376.565Z" transform="translate(-0.001 -316.603)" fill="#e4eaf6"/>
    <g id="Group_88" data-name="Group 88" transform="translate(61.793 56.493)">
      <path id="Path_198" data-name="Path 198" d="M70.92,415.964l-7.415-7.415a6.663,6.663,0,0,0-1.712,4.441v8.549a2.673,2.673,0,0,0,2.673,2.673h8.02v-4.469A5.346,5.346,0,0,0,70.92,415.964Z" transform="translate(-61.793 -403.181)" fill="#d7deed"/>
      <path id="Path_199" data-name="Path 199" d="M381.152,415.964l7.415-7.415a6.663,6.663,0,0,1,1.712,4.441v8.549a2.673,2.673,0,0,1-2.673,2.673h-8.02v-4.469A5.346,5.346,0,0,1,381.152,415.964Z" transform="translate(-331.467 -403.181)" fill="#d7deed"/>
      <path id="Path_200" data-name="Path 200" d="M143.818,374.68c5.369,7.284,11.658,11.3,15.753,12.633l.826.268.826-.268c4.1-1.331,10.384-5.349,15.753-12.633l.479-.709-2.631-.877c-4.954,6.721-10.736,10.476-14.428,11.676-3.692-1.2-9.474-4.955-14.428-11.676l-2.631.877Z" transform="translate(-130.992 -373.094)" fill="#d7deed"/>
    </g>
    <path id="Path_201" data-name="Path 201" d="M118.992,185.441l-1.552-.005a2.673,2.673,0,0,0-2.682,2.673v5.284a2.673,2.673,0,0,0,2.727,2.673l2.3-.046Z" transform="translate(-44.945 -157.358)" fill="#707487"/>
    <path id="Path_202" data-name="Path 202" d="M132.422,185.436h-.008v10.625c.018,0,.035,0,.053,0l2.3-.046-.8-10.579Z" transform="translate(-59.928 -157.358)" fill="#65687a"/>
    <path id="Path_203" data-name="Path 203" d="M364.816,185.441l1.552-.005a2.673,2.673,0,0,1,2.682,2.673v5.284a2.673,2.673,0,0,1-2.727,2.673l-2.3-.046Z" transform="translate(-256.465 -157.358)" fill="#707487"/>
    <path id="Path_204" data-name="Path 204" d="M366.368,185.436h.008v10.625c-.018,0-.035,0-.053,0l-2.3-.046.8-10.579Z" transform="translate(-256.464 -157.358)" fill="#65687a"/>
    <path id="Path_205" data-name="Path 205" d="M141.241,105.931v5.763q0,3.592.276,7.176l.77,10.013a8.02,8.02,0,0,0,3.4,5.955l8.072,5.65a8.475,8.475,0,0,0,4.86,1.532h0a8.474,8.474,0,0,0,4.86-1.532l8.072-5.65a8.019,8.019,0,0,0,3.4-5.955l.77-10.013q.276-3.581.276-7.176v-5.763Z" transform="translate(-67.418 -89.891)" fill="#f0c087"/>
    <path id="Path_207" data-name="Path 207" d="M132.414,97.1v9.357c15.836,0,27.891-5.513,29.91-6.731,2.17,5.395,6.08,6.731,6.08,6.731h1.437V97.1Z" transform="translate(-59.928 -82.4)" fill="#5a4146"/>
    <path id="Path_208" data-name="Path 208" d="M292.449,255.281l-2.294-.046c-1.021,1.854-4.078,4.89-13.192,4.89V262.8c12.18,0,15.305-5.19,16.1-7.582A2.674,2.674,0,0,1,292.449,255.281Z" transform="translate(-182.59 -216.573)" fill="#464655"/>
    <path id="Path_209" data-name="Path 209" d="M250.514,286.494h-1.337a2,2,0,0,1-2-2h0a2,2,0,0,1,2-2h1.337a2,2,0,0,1,2,2h0A2,2,0,0,1,250.514,286.494Z" transform="translate(-157.309 -239.711)" fill="#5b5d6e"/>
  </g>
</svg>
